<?xml version="1.0" encoding="UTF-8" standalone="no"?>
<!DOCTYPE svg PUBLIC "-//W3C//DTD SVG 1.1//EN"
 "http://www.w3.org/Graphics/SVG/1.1/DTD/svg11.dtd">
<!-- Generated by graphviz version 2.50.0 (0)
 -->
<!-- Pages: 1 -->
<svg width="632pt" height="360pt"
 viewBox="0.00 0.00 632.39 360.00" xmlns="http://www.w3.org/2000/svg" xmlns:xlink="http://www.w3.org/1999/xlink">
<g id="graph0" class="graph" transform="scale(0.48 0.48) rotate(0) translate(4 741)">
<polygon fill="white" stroke="transparent" points="-4,4 -4,-741 1304.69,-741 1304.69,4 -4,4"/>
<text text-anchor="start" x="626.84" y="-721.8" font-family="Lato" font-size="14.00">[Büchi]</text>
<!-- I -->
<!-- 11 -->
<g id="node2" class="node">
<title>11</title>
<ellipse fill="#ffffaa" stroke="black" cx="59.45" cy="-589" rx="21.4" ry="18"/>
<text text-anchor="middle" x="59.45" y="-585.3" font-family="Lato" font-size="14.00">11</text>
</g>
<!-- I&#45;&gt;11 -->
<g id="edge1" class="edge">
<title>I&#45;&gt;11</title>
<path fill="none" stroke="black" d="M1.16,-589C2.83,-589 16.92,-589 30.71,-589"/>
<polygon fill="black" stroke="black" points="37.82,-589 30.82,-592.15 34.32,-589 30.82,-589 30.82,-589 30.82,-589 34.32,-589 30.82,-585.85 37.82,-589 37.82,-589"/>
</g>
<!-- 9 -->
<g id="node4" class="node">
<title>9</title>
<ellipse fill="#ffffaa" stroke="black" cx="1091.79" cy="-366" rx="18" ry="18"/>
<ellipse fill="none" stroke="black" cx="1091.79" cy="-366" rx="22" ry="22"/>
<text text-anchor="middle" x="1091.79" y="-362.3" font-family="Lato" font-size="14.00">9</text>
</g>
<!-- 11&#45;&gt;9 -->
<g id="edge41" class="edge">
<title>11&#45;&gt;9</title>
<path fill="none" stroke="black" d="M68.65,-605.71C85.05,-636.48 125.07,-699 179.34,-699 179.34,-699 179.34,-699 915.79,-699 1052.29,-699 1082.56,-477.03 1089.07,-395.54"/>
<polygon fill="black" stroke="black" points="1089.62,-388.11 1092.24,-395.32 1089.36,-391.6 1089.1,-395.09 1089.1,-395.09 1089.1,-395.09 1089.36,-391.6 1085.96,-394.85 1089.62,-388.11 1089.62,-388.11"/>
<text text-anchor="start" x="577.79" y="-702.8" font-family="Lato" font-size="14.00">a &amp; b</text>
</g>
<!-- 1 -->
<g id="node5" class="node">
<title>1</title>
<ellipse fill="#ffffaa" stroke="black" cx="676.79" cy="-482" rx="18" ry="18"/>
<text text-anchor="middle" x="676.79" y="-478.3" font-family="Lato" font-size="14.00">1</text>
</g>
<!-- 11&#45;&gt;1 -->
<g id="edge39" class="edge">
<title>11&#45;&gt;1</title>
<path fill="none" stroke="black" d="M80.85,-592.28C149.52,-602.4 377.39,-628.6 545.79,-561 587.59,-544.22 631.39,-514.74 655.98,-496.92"/>
<polygon fill="black" stroke="black" points="661.8,-492.66 658.02,-499.34 658.98,-494.73 656.15,-496.79 656.15,-496.79 656.15,-496.79 658.98,-494.73 654.29,-494.25 661.8,-492.66 661.8,-492.66"/>
<text text-anchor="start" x="321.79" y="-608.8" font-family="Lato" font-size="14.00">a &amp; !b</text>
</g>
<!-- 5 -->
<g id="node10" class="node">
<title>5</title>
<ellipse fill="#ffffaa" stroke="black" cx="676.79" cy="-164" rx="18" ry="18"/>
<text text-anchor="middle" x="676.79" y="-160.3" font-family="Lato" font-size="14.00">5</text>
</g>
<!-- 11&#45;&gt;5 -->
<g id="edge40" class="edge">
<title>11&#45;&gt;5</title>
<path fill="none" stroke="black" d="M60.15,-570.73C59.01,-471.31 59.9,0 179.34,0 179.34,0 179.34,0 513.79,0 592.21,0 645.49,-96.08 666.18,-141.16"/>
<polygon fill="black" stroke="black" points="669.1,-147.68 663.36,-142.58 667.67,-144.48 666.23,-141.29 666.23,-141.29 666.23,-141.29 667.67,-144.48 669.11,-140 669.1,-147.68 669.1,-147.68"/>
<text text-anchor="start" x="321.79" y="-3.8" font-family="Lato" font-size="14.00">!a &amp; b</text>
</g>
<!-- 12 -->
<g id="node11" class="node">
<title>12</title>
<ellipse fill="#ffffaa" stroke="black" cx="180.34" cy="-355" rx="21.4" ry="18"/>
<text text-anchor="middle" x="180.34" y="-351.3" font-family="Lato" font-size="14.00">12</text>
</g>
<!-- 11&#45;&gt;12 -->
<g id="edge42" class="edge">
<title>11&#45;&gt;12</title>
<path fill="none" stroke="black" d="M68.81,-572.55C89.62,-531.6 143.77,-425.02 167.69,-377.94"/>
<polygon fill="black" stroke="black" points="170.99,-371.44 170.63,-379.1 169.41,-374.56 167.82,-377.68 167.82,-377.68 167.82,-377.68 169.41,-374.56 165.01,-376.25 170.99,-371.44 170.99,-371.44"/>
<text text-anchor="start" x="98.9" y="-517.8" font-family="Lato" font-size="14.00">!a &amp; !b</text>
</g>
<!-- 0 -->
<g id="node3" class="node">
<title>0</title>
<ellipse fill="#ffffaa" stroke="black" cx="1278.69" cy="-462" rx="18" ry="18"/>
<ellipse fill="none" stroke="black" cx="1278.69" cy="-462" rx="22" ry="22"/>
<text text-anchor="middle" x="1278.69" y="-458.3" font-family="Lato" font-size="14.00">0</text>
</g>
<!-- 0&#45;&gt;9 -->
<g id="edge2" class="edge">
<title>0&#45;&gt;9</title>
<path fill="none" stroke="black" d="M1256.37,-460.76C1231.7,-458.52 1190.53,-452.3 1159.79,-435 1139.88,-423.79 1122.11,-404.85 1109.89,-389.65"/>
<polygon fill="black" stroke="black" points="1105.32,-383.82 1112.11,-387.39 1107.48,-386.57 1109.64,-389.33 1109.64,-389.33 1109.64,-389.33 1107.48,-386.57 1107.16,-391.27 1105.32,-383.82 1105.32,-383.82"/>
<text text-anchor="start" x="1181.74" y="-457.8" font-family="Lato" font-size="14.00">r</text>
</g>
<!-- 9&#45;&gt;9 -->
<g id="edge35" class="edge">
<title>9&#45;&gt;9</title>
<path fill="none" stroke="black" d="M1083.79,-386.58C1082.68,-396.84 1085.35,-406 1091.79,-406 1096.63,-406 1099.34,-400.85 1099.92,-393.95"/>
<polygon fill="black" stroke="black" points="1099.8,-386.58 1103.06,-393.53 1099.86,-390.08 1099.92,-393.58 1099.92,-393.58 1099.92,-393.58 1099.86,-390.08 1096.77,-393.63 1099.8,-386.58 1099.8,-386.58"/>
<text text-anchor="start" x="1088.29" y="-409.8" font-family="Lato" font-size="14.00">r</text>
</g>
<!-- 10 -->
<g id="node7" class="node">
<title>10</title>
<ellipse fill="#ffffaa" stroke="black" cx="1185.24" cy="-404" rx="21.4" ry="18"/>
<ellipse fill="none" stroke="black" cx="1185.24" cy="-404" rx="25.4" ry="22"/>
<text text-anchor="middle" x="1185.24" y="-400.3" font-family="Lato" font-size="14.00">10</text>
</g>
<!-- 9&#45;&gt;10 -->
<g id="edge36" class="edge">
<title>9&#45;&gt;10</title>
<path fill="none" stroke="black" d="M1113.91,-363.31C1122.79,-362.97 1133.06,-363.63 1141.79,-367 1150.06,-370.19 1157.79,-375.76 1164.33,-381.62"/>
<polygon fill="black" stroke="black" points="1169.53,-386.57 1162.29,-384.03 1167,-384.16 1164.46,-381.75 1164.46,-381.75 1164.46,-381.75 1167,-384.16 1166.63,-379.47 1169.53,-386.57 1169.53,-386.57"/>
<text text-anchor="start" x="1131.79" y="-370.8" font-family="Lato" font-size="14.00">!r</text>
</g>
<!-- 1&#45;&gt;9 -->
<g id="edge5" class="edge">
<title>1&#45;&gt;9</title>
<path fill="none" stroke="black" d="M693.3,-474.4C703.04,-469.82 715.97,-464.1 727.79,-460 850.13,-417.56 1001.51,-384.32 1062.94,-371.61"/>
<polygon fill="black" stroke="black" points="1069.98,-370.16 1063.76,-374.65 1066.55,-370.86 1063.12,-371.57 1063.12,-371.57 1063.12,-371.57 1066.55,-370.86 1062.49,-368.48 1069.98,-370.16 1069.98,-370.16"/>
<text text-anchor="start" x="898.29" y="-416.8" font-family="Lato" font-size="14.00">b &amp; r</text>
</g>
<!-- 1&#45;&gt;1 -->
<g id="edge3" class="edge">
<title>1&#45;&gt;1</title>
<path fill="none" stroke="black" d="M663.95,-494.92C658.1,-506.13 662.38,-518 676.79,-518 688.28,-518 693.33,-510.47 691.94,-501.73"/>
<polygon fill="black" stroke="black" points="689.63,-494.92 694.86,-500.53 690.76,-498.23 691.88,-501.55 691.88,-501.55 691.88,-501.55 690.76,-498.23 688.9,-502.56 689.63,-494.92 689.63,-494.92"/>
<text text-anchor="start" x="658.29" y="-521.8" font-family="Lato" font-size="14.00">!b &amp; r</text>
</g>
<!-- 6 -->
<g id="node6" class="node">
<title>6</title>
<ellipse fill="#ffffaa" stroke="black" cx="836.79" cy="-520" rx="18" ry="18"/>
<text text-anchor="middle" x="836.79" y="-516.3" font-family="Lato" font-size="14.00">6</text>
</g>
<!-- 1&#45;&gt;6 -->
<g id="edge4" class="edge">
<title>1&#45;&gt;6</title>
<path fill="none" stroke="black" d="M694.84,-482.82C717.1,-484.26 757.08,-488.1 789.79,-498 798.1,-500.51 806.78,-504.33 814.34,-508.08"/>
<polygon fill="black" stroke="black" points="820.93,-511.46 813.26,-511.06 817.81,-509.86 814.7,-508.26 814.7,-508.26 814.7,-508.26 817.81,-509.86 816.14,-505.46 820.93,-511.46 820.93,-511.46"/>
<text text-anchor="start" x="738.79" y="-501.8" font-family="Lato" font-size="14.00">!b &amp; !r</text>
</g>
<!-- 1&#45;&gt;10 -->
<g id="edge6" class="edge">
<title>1&#45;&gt;10</title>
<path fill="none" stroke="black" d="M686.18,-497.62C694.65,-511.66 709.13,-531.49 727.79,-541 782.49,-568.88 804.92,-554.98 865.79,-547 927.36,-538.93 943.46,-534.86 1000.79,-511 1060.56,-486.13 1124.63,-445.04 1158.99,-421.68"/>
<polygon fill="black" stroke="black" points="1165.06,-417.54 1161.06,-424.09 1162.17,-419.51 1159.28,-421.49 1159.28,-421.49 1159.28,-421.49 1162.17,-419.51 1157.5,-418.89 1165.06,-417.54 1165.06,-417.54"/>
<text text-anchor="start" x="963.79" y="-529.8" font-family="Lato" font-size="14.00">b &amp; !r</text>
</g>
<!-- 6&#45;&gt;0 -->
<g id="edge19" class="edge">
<title>6&#45;&gt;0</title>
<path fill="none" stroke="black" d="M851.65,-530.18C876.36,-547.3 930.26,-580 981.29,-580 981.29,-580 981.29,-580 1186.24,-580 1231.68,-580 1257.77,-524.66 1269.7,-489.78"/>
<polygon fill="black" stroke="black" points="1271.9,-483.1 1272.71,-490.73 1270.81,-486.42 1269.71,-489.75 1269.71,-489.75 1269.71,-489.75 1270.81,-486.42 1266.72,-488.76 1271.9,-483.1 1271.9,-483.1"/>
<text text-anchor="start" x="1073.29" y="-583.8" font-family="Lato" font-size="14.00">b &amp; !r</text>
</g>
<!-- 6&#45;&gt;9 -->
<g id="edge22" class="edge">
<title>6&#45;&gt;9</title>
<path fill="none" stroke="black" d="M854.72,-518.25C876.39,-515.64 914.83,-509.71 945.79,-498 996.63,-478.77 1013.74,-475.82 1051.79,-437 1064.06,-424.49 1073.63,-407.33 1080.21,-393.02"/>
<polygon fill="black" stroke="black" points="1083.21,-386.26 1083.25,-393.93 1081.79,-389.46 1080.37,-392.66 1080.37,-392.66 1080.37,-392.66 1081.79,-389.46 1077.49,-391.38 1083.21,-386.26 1083.21,-386.26"/>
<text text-anchor="start" x="965.79" y="-495.8" font-family="Lato" font-size="14.00">b &amp; r</text>
</g>
<!-- 6&#45;&gt;1 -->
<g id="edge20" class="edge">
<title>6&#45;&gt;1</title>
<path fill="none" stroke="black" d="M818.48,-521.42C796.74,-522.63 758.57,-522.85 727.79,-513 716.89,-509.51 705.94,-503.13 697.08,-497.06"/>
<polygon fill="black" stroke="black" points="691.31,-492.95 698.84,-494.44 694.16,-494.98 697.01,-497.01 697.01,-497.01 697.01,-497.01 694.16,-494.98 695.19,-499.58 691.31,-492.95 691.31,-492.95"/>
<text text-anchor="start" x="740.29" y="-525.8" font-family="Lato" font-size="14.00">!b &amp; r</text>
</g>
<!-- 2 -->
<g id="node8" class="node">
<title>2</title>
<ellipse fill="#ffffaa" stroke="black" cx="982.29" cy="-432" rx="18" ry="18"/>
<text text-anchor="middle" x="982.29" y="-428.3" font-family="Lato" font-size="14.00">2</text>
</g>
<!-- 6&#45;&gt;2 -->
<g id="edge21" class="edge">
<title>6&#45;&gt;2</title>
<path fill="none" stroke="black" d="M850.65,-507.77C859.45,-499.89 871.67,-489.88 883.79,-483 909.35,-468.49 920.16,-474.39 945.79,-460 951.72,-456.67 957.71,-452.39 963.03,-448.18"/>
<polygon fill="black" stroke="black" points="968.51,-443.68 965.09,-450.56 965.8,-445.9 963.09,-448.12 963.09,-448.12 963.09,-448.12 965.8,-445.9 961.1,-445.69 968.51,-443.68 968.51,-443.68"/>
<text text-anchor="start" x="894.79" y="-486.8" font-family="Lato" font-size="14.00">!b &amp; !r</text>
</g>
<!-- 10&#45;&gt;0 -->
<g id="edge37" class="edge">
<title>10&#45;&gt;0</title>
<path fill="none" stroke="black" d="M1207.55,-414.94C1217.23,-420.12 1228.72,-426.58 1238.69,-433 1244.21,-436.56 1249.98,-440.63 1255.34,-444.58"/>
<polygon fill="black" stroke="black" points="1260.96,-448.79 1253.46,-447.11 1258.15,-446.69 1255.35,-444.59 1255.35,-444.59 1255.35,-444.59 1258.15,-446.69 1257.24,-442.07 1260.96,-448.79 1260.96,-448.79"/>
<text text-anchor="start" x="1228.69" y="-436.8" font-family="Lato" font-size="14.00">!r</text>
</g>
<!-- 10&#45;&gt;9 -->
<g id="edge38" class="edge">
<title>10&#45;&gt;9</title>
<path fill="none" stroke="black" d="M1161.87,-394.7C1149.04,-389.37 1132.87,-382.65 1119.4,-377.06"/>
<polygon fill="black" stroke="black" points="1112.64,-374.25 1120.31,-374.02 1115.87,-375.59 1119.1,-376.93 1119.1,-376.93 1119.1,-376.93 1115.87,-375.59 1117.89,-379.84 1112.64,-374.25 1112.64,-374.25"/>
<text text-anchor="start" x="1133.29" y="-390.8" font-family="Lato" font-size="14.00">r</text>
</g>
<!-- 2&#45;&gt;9 -->
<g id="edge8" class="edge">
<title>2&#45;&gt;9</title>
<path fill="none" stroke="black" d="M999.46,-425.95C1013.78,-420.25 1034.96,-410.96 1051.79,-400 1058.12,-395.88 1064.49,-390.81 1070.2,-385.85"/>
<polygon fill="black" stroke="black" points="1075.66,-380.96 1072.54,-387.98 1073.05,-383.29 1070.44,-385.63 1070.44,-385.63 1070.44,-385.63 1073.05,-383.29 1068.34,-383.28 1075.66,-380.96 1075.66,-380.96"/>
<text text-anchor="start" x="1018.79" y="-421.8" font-family="Lato" font-size="14.00">b &amp; r</text>
</g>
<!-- 2&#45;&gt;1 -->
<g id="edge7" class="edge">
<title>2&#45;&gt;1</title>
<path fill="none" stroke="black" d="M964.29,-434.8C913.31,-443.2 761.56,-468.2 702.09,-478"/>
<polygon fill="black" stroke="black" points="694.98,-479.17 701.37,-474.92 698.43,-478.6 701.89,-478.03 701.89,-478.03 701.89,-478.03 698.43,-478.6 702.4,-481.14 694.98,-479.17 694.98,-479.17"/>
<text text-anchor="start" x="818.29" y="-464.8" font-family="Lato" font-size="14.00">!b &amp; r</text>
</g>
<!-- 3 -->
<g id="node9" class="node">
<title>3</title>
<ellipse fill="#ffffaa" stroke="black" cx="512.79" cy="-305" rx="18" ry="18"/>
<text text-anchor="middle" x="512.79" y="-301.3" font-family="Lato" font-size="14.00">3</text>
</g>
<!-- 3&#45;&gt;9 -->
<g id="edge11" class="edge">
<title>3&#45;&gt;9</title>
<path fill="none" stroke="black" d="M530.96,-301.93C599.79,-290.41 861.15,-254.33 1051.79,-333 1058.68,-335.84 1065.25,-340.37 1070.96,-345.18"/>
<polygon fill="black" stroke="black" points="1076.37,-350.02 1069.05,-347.7 1073.76,-347.68 1071.16,-345.35 1071.16,-345.35 1071.16,-345.35 1073.76,-347.68 1073.26,-343 1076.37,-350.02 1076.37,-350.02"/>
<text text-anchor="start" x="807.79" y="-292.8" font-family="Lato" font-size="14.00">a &amp; b &amp; r</text>
</g>
<!-- 3&#45;&gt;1 -->
<g id="edge9" class="edge">
<title>3&#45;&gt;1</title>
<path fill="none" stroke="black" d="M527.42,-316.14C549.43,-334.47 593.57,-372.68 625.79,-410 639.72,-426.13 653.37,-446.15 662.88,-460.98"/>
<polygon fill="black" stroke="black" points="666.69,-466.99 660.28,-462.77 664.81,-464.04 662.94,-461.08 662.94,-461.08 662.94,-461.08 664.81,-464.04 665.6,-459.39 666.69,-466.99 666.69,-466.99"/>
<text text-anchor="start" x="563.79" y="-413.8" font-family="Lato" font-size="14.00">a &amp; !b &amp; r</text>
</g>
<!-- 3&#45;&gt;5 -->
<g id="edge10" class="edge">
<title>3&#45;&gt;5</title>
<path fill="none" stroke="black" d="M527.05,-293.46C555.77,-268.47 623.8,-209.26 656.96,-180.39"/>
<polygon fill="black" stroke="black" points="662.35,-175.7 659.14,-182.67 659.71,-178 657.07,-180.29 657.07,-180.29 657.07,-180.29 659.71,-178 655,-177.92 662.35,-175.7 662.35,-175.7"/>
<text text-anchor="start" x="563.79" y="-263.8" font-family="Lato" font-size="14.00">!a &amp; b &amp; r</text>
</g>
<!-- 3&#45;&gt;12 -->
<g id="edge12" class="edge">
<title>3&#45;&gt;12</title>
<path fill="none" stroke="black" d="M494.83,-302.84C448.6,-297.67 317.36,-287.83 219.79,-328 213.59,-330.55 207.4,-334.25 201.86,-338.1"/>
<polygon fill="black" stroke="black" points="196.14,-342.28 199.93,-335.61 198.96,-340.22 201.79,-338.15 201.79,-338.15 201.79,-338.15 198.96,-340.22 203.65,-340.7 196.14,-342.28 196.14,-342.28"/>
<text text-anchor="start" x="307.79" y="-308.8" font-family="Lato" font-size="14.00">!a &amp; !b &amp; r</text>
</g>
<!-- 5&#45;&gt;9 -->
<g id="edge17" class="edge">
<title>5&#45;&gt;9</title>
<path fill="none" stroke="black" d="M692.14,-173.94C701.87,-180.34 715.19,-188.46 727.79,-194 796.54,-224.22 993.99,-242.06 1051.79,-290 1066.78,-302.43 1076.65,-322.09 1082.71,-338.3"/>
<polygon fill="black" stroke="black" points="1085.08,-345 1079.78,-339.45 1083.91,-341.7 1082.75,-338.4 1082.75,-338.4 1082.75,-338.4 1083.91,-341.7 1085.72,-337.35 1085.08,-345 1085.08,-345"/>
<text text-anchor="start" x="898.79" y="-251.8" font-family="Lato" font-size="14.00">a &amp; r</text>
</g>
<!-- 5&#45;&gt;10 -->
<g id="edge18" class="edge">
<title>5&#45;&gt;10</title>
<path fill="none" stroke="black" d="M688.05,-149.48C697.16,-137.65 711.54,-121.42 727.79,-112 877.44,-25.33 984.66,52.02 1113.79,-63 1160.27,-104.4 1177.56,-299.85 1182.54,-374.72"/>
<polygon fill="black" stroke="black" points="1183.01,-381.99 1179.42,-375.21 1182.79,-378.5 1182.56,-375.01 1182.56,-375.01 1182.56,-375.01 1182.79,-378.5 1185.71,-374.81 1183.01,-381.99 1183.01,-381.99"/>
<text text-anchor="start" x="964.29" y="-10.8" font-family="Lato" font-size="14.00">a &amp; !r</text>
</g>
<!-- 5&#45;&gt;5 -->
<g id="edge15" class="edge">
<title>5&#45;&gt;5</title>
<path fill="none" stroke="black" d="M663.95,-176.92C658.1,-188.13 662.38,-200 676.79,-200 688.28,-200 693.33,-192.47 691.94,-183.73"/>
<polygon fill="black" stroke="black" points="689.63,-176.92 694.86,-182.53 690.76,-180.23 691.88,-183.55 691.88,-183.55 691.88,-183.55 690.76,-180.23 688.9,-184.56 689.63,-176.92 689.63,-176.92"/>
<text text-anchor="start" x="658.79" y="-203.8" font-family="Lato" font-size="14.00">!a &amp; r</text>
</g>
<!-- 8 -->
<g id="node13" class="node">
<title>8</title>
<ellipse fill="#ffffaa" stroke="black" cx="836.79" cy="-123" rx="18" ry="18"/>
<text text-anchor="middle" x="836.79" y="-119.3" font-family="Lato" font-size="14.00">8</text>
</g>
<!-- 5&#45;&gt;8 -->
<g id="edge16" class="edge">
<title>5&#45;&gt;8</title>
<path fill="none" stroke="black" d="M694.74,-161.74C716.9,-158.54 756.78,-151.95 789.79,-142 797.77,-139.59 806.27,-136.3 813.76,-133.14"/>
<polygon fill="black" stroke="black" points="820.32,-130.29 815.15,-135.97 817.11,-131.68 813.9,-133.08 813.9,-133.08 813.9,-133.08 817.11,-131.68 812.64,-130.19 820.32,-130.29 820.32,-130.29"/>
<text text-anchor="start" x="738.79" y="-160.8" font-family="Lato" font-size="14.00">!a &amp; !r</text>
</g>
<!-- 12&#45;&gt;9 -->
<g id="edge48" class="edge">
<title>12&#45;&gt;9</title>
<path fill="none" stroke="black" d="M181.99,-336.79C184.13,-285.38 192.51,-140.48 219.79,-103 254.89,-54.79 280.16,-43 339.79,-43 339.79,-43 339.79,-43 677.79,-43 855.28,-43 943.72,-42.21 1051.79,-183 1054.15,-186.08 1074.72,-286.54 1085,-337.27"/>
<polygon fill="black" stroke="black" points="1086.44,-344.38 1081.96,-338.15 1085.74,-340.95 1085.05,-337.52 1085.05,-337.52 1085.05,-337.52 1085.74,-340.95 1088.14,-336.9 1086.44,-344.38 1086.44,-344.38"/>
<text text-anchor="start" x="647.79" y="-46.8" font-family="Lato" font-size="14.00">a &amp; b &amp; r</text>
</g>
<!-- 12&#45;&gt;1 -->
<g id="edge43" class="edge">
<title>12&#45;&gt;1</title>
<path fill="none" stroke="black" d="M199.25,-364.08C244.71,-386.61 368.86,-444.94 479.79,-468 540.44,-480.61 613.66,-482.38 651.11,-482.34"/>
<polygon fill="black" stroke="black" points="658.54,-482.3 651.55,-485.48 655.04,-482.32 651.54,-482.33 651.54,-482.33 651.54,-482.33 655.04,-482.32 651.53,-479.18 658.54,-482.3 658.54,-482.3"/>
<text text-anchor="start" x="395.79" y="-467.8" font-family="Lato" font-size="14.00">a &amp; !b &amp; r</text>
</g>
<!-- 12&#45;&gt;6 -->
<g id="edge45" class="edge">
<title>12&#45;&gt;6</title>
<path fill="none" stroke="black" d="M190.77,-371.09C197.7,-381.81 207.95,-395.61 219.79,-405 374.96,-528.06 447.06,-519.28 643.79,-542 708.25,-549.45 726.47,-555.19 789.79,-541 798.06,-539.15 806.62,-535.71 814.09,-532.14"/>
<polygon fill="black" stroke="black" points="820.6,-528.88 815.76,-534.83 817.48,-530.45 814.35,-532.02 814.35,-532.02 814.35,-532.02 817.48,-530.45 812.93,-529.2 820.6,-528.88 820.6,-528.88"/>
<text text-anchor="start" x="479.79" y="-535.8" font-family="Lato" font-size="14.00">a &amp; !b &amp; !r</text>
</g>
<!-- 12&#45;&gt;10 -->
<g id="edge49" class="edge">
<title>12&#45;&gt;10</title>
<path fill="none" stroke="black" d="M185.54,-372.82C190.83,-392.16 201.52,-423.09 219.79,-444 249.84,-478.38 266.53,-477.45 307.79,-497 495.48,-585.94 550.1,-623 757.79,-623 757.79,-623 757.79,-623 1092.79,-623 1106.97,-623 1107.08,-611.49 1113.79,-599 1150.43,-530.81 1122.57,-498.88 1159.79,-431 1160.79,-429.18 1161.93,-427.38 1163.17,-425.63"/>
<polygon fill="black" stroke="black" points="1167.65,-419.9 1165.82,-427.36 1165.49,-422.66 1163.34,-425.42 1163.34,-425.42 1163.34,-425.42 1165.49,-422.66 1160.86,-423.48 1167.65,-419.9 1167.65,-419.9"/>
<text text-anchor="start" x="727.79" y="-626.8" font-family="Lato" font-size="14.00">a &amp; b &amp; !r</text>
</g>
<!-- 12&#45;&gt;5 -->
<g id="edge44" class="edge">
<title>12&#45;&gt;5</title>
<path fill="none" stroke="black" d="M190.68,-338.79C197.57,-328.01 207.8,-314.2 219.79,-305 349.21,-205.69 403.14,-205.35 563.79,-177 593.75,-171.71 628.62,-168.05 651.39,-165.99"/>
<polygon fill="black" stroke="black" points="658.62,-165.36 651.93,-169.11 655.14,-165.66 651.65,-165.97 651.65,-165.97 651.65,-165.97 655.14,-165.66 651.37,-162.83 658.62,-165.36 658.62,-165.36"/>
<text text-anchor="start" x="395.79" y="-214.8" font-family="Lato" font-size="14.00">!a &amp; b &amp; r</text>
</g>
<!-- 12&#45;&gt;12 -->
<g id="edge50" class="edge">
<title>12&#45;&gt;12</title>
<path fill="none" stroke="black" d="M169.98,-370.92C167.28,-381.15 170.73,-391 180.34,-391 187.7,-391 191.45,-385.23 191.59,-377.93"/>
<polygon fill="black" stroke="black" points="190.7,-370.92 194.71,-377.47 191.14,-374.39 191.58,-377.86 191.58,-377.86 191.58,-377.86 191.14,-374.39 188.46,-378.26 190.7,-370.92 190.7,-370.92"/>
<text text-anchor="start" x="147.34" y="-394.8" font-family="Lato" font-size="14.00">!a &amp; !b &amp; r</text>
</g>
<!-- 12&#45;&gt;8 -->
<g id="edge47" class="edge">
<title>12&#45;&gt;8</title>
<path fill="none" stroke="black" d="M183.44,-336.99C191.43,-277.8 225.5,-93 339.79,-93 339.79,-93 339.79,-93 677.79,-93 726.39,-93 781.94,-106.87 812.52,-115.75"/>
<polygon fill="black" stroke="black" points="819.38,-117.77 811.78,-118.81 816.03,-116.78 812.67,-115.79 812.67,-115.79 812.67,-115.79 816.03,-116.78 813.56,-112.77 819.38,-117.77 819.38,-117.77"/>
<text text-anchor="start" x="479.79" y="-96.8" font-family="Lato" font-size="14.00">!a &amp; b &amp; !r</text>
</g>
<!-- 7 -->
<g id="node14" class="node">
<title>7</title>
<ellipse fill="#ffffaa" stroke="black" cx="340.79" cy="-355" rx="18" ry="18"/>
<text text-anchor="middle" x="340.79" y="-351.3" font-family="Lato" font-size="14.00">7</text>
</g>
<!-- 12&#45;&gt;7 -->
<g id="edge46" class="edge">
<title>12&#45;&gt;7</title>
<path fill="none" stroke="black" d="M198.32,-344.52C204.79,-341.09 212.4,-337.73 219.79,-336 250.09,-328.92 259.19,-330.38 289.79,-336 299.16,-337.72 309.05,-341.11 317.54,-344.56"/>
<polygon fill="black" stroke="black" points="324.01,-347.31 316.33,-347.47 320.79,-345.94 317.56,-344.57 317.56,-344.57 317.56,-344.57 320.79,-345.94 318.79,-341.67 324.01,-347.31 324.01,-347.31"/>
<text text-anchor="start" x="219.79" y="-339.8" font-family="Lato" font-size="14.00">!a &amp; !b &amp; !r</text>
</g>
<!-- 4 -->
<g id="node12" class="node">
<title>4</title>
<ellipse fill="#ffffaa" stroke="black" cx="982.29" cy="-219" rx="18" ry="18"/>
<text text-anchor="middle" x="982.29" y="-215.3" font-family="Lato" font-size="14.00">4</text>
</g>
<!-- 4&#45;&gt;9 -->
<g id="edge14" class="edge">
<title>4&#45;&gt;9</title>
<path fill="none" stroke="black" d="M1000.46,-219.02C1015.85,-219.96 1038.07,-223.77 1051.79,-237 1078.97,-263.2 1087.38,-307.61 1089.89,-336.87"/>
<polygon fill="black" stroke="black" points="1090.4,-343.96 1086.75,-337.21 1090.15,-340.47 1089.89,-336.98 1089.89,-336.98 1089.89,-336.98 1090.15,-340.47 1093.04,-336.75 1090.4,-343.96 1090.4,-343.96"/>
<text text-anchor="start" x="1019.29" y="-240.8" font-family="Lato" font-size="14.00">a &amp; r</text>
</g>
<!-- 4&#45;&gt;5 -->
<g id="edge13" class="edge">
<title>4&#45;&gt;5</title>
<path fill="none" stroke="black" d="M964.6,-214.23C942.27,-208.02 901.36,-197.22 865.79,-191 805.02,-180.38 788.58,-186.55 727.79,-176 719.08,-174.49 709.63,-172.35 701.32,-170.3"/>
<polygon fill="black" stroke="black" points="694.35,-168.53 701.91,-167.2 697.74,-169.39 701.13,-170.25 701.13,-170.25 701.13,-170.25 697.74,-169.39 700.36,-173.31 694.35,-168.53 694.35,-168.53"/>
<text text-anchor="start" x="818.79" y="-194.8" font-family="Lato" font-size="14.00">!a &amp; r</text>
</g>
<!-- 8&#45;&gt;0 -->
<g id="edge31" class="edge">
<title>8&#45;&gt;0</title>
<path fill="none" stroke="black" d="M854.9,-123.2C876.42,-123.8 914.37,-126.02 945.79,-134 996.1,-146.78 1011.2,-150.65 1051.79,-183 1148.27,-259.89 1230.61,-384.69 1262.99,-437.33"/>
<polygon fill="black" stroke="black" points="1266.69,-443.39 1260.36,-439.05 1264.87,-440.4 1263.04,-437.41 1263.04,-437.41 1263.04,-437.41 1264.87,-440.4 1265.73,-435.77 1266.69,-443.39 1266.69,-443.39"/>
<text text-anchor="start" x="1073.79" y="-243.8" font-family="Lato" font-size="14.00">a &amp; !r</text>
</g>
<!-- 8&#45;&gt;9 -->
<g id="edge34" class="edge">
<title>8&#45;&gt;9</title>
<path fill="none" stroke="black" d="M854.79,-126.52C885.35,-133.29 951.04,-149.92 1000.79,-177 1026.34,-190.91 1035.96,-193.6 1051.79,-218 1075.56,-254.63 1084.89,-305.21 1088.52,-336.75"/>
<polygon fill="black" stroke="black" points="1089.28,-343.95 1085.41,-337.32 1088.91,-340.47 1088.54,-336.99 1088.54,-336.99 1088.54,-336.99 1088.91,-340.47 1091.67,-336.65 1089.28,-343.95 1089.28,-343.95"/>
<text text-anchor="start" x="966.29" y="-180.8" font-family="Lato" font-size="14.00">a &amp; r</text>
</g>
<!-- 8&#45;&gt;5 -->
<g id="edge33" class="edge">
<title>8&#45;&gt;5</title>
<path fill="none" stroke="black" d="M819.1,-119.62C797.37,-115.96 758.51,-112.02 727.79,-123 715.19,-127.51 703.48,-136.71 694.56,-145.26"/>
<polygon fill="black" stroke="black" points="689.39,-150.45 692.1,-143.27 691.86,-147.97 694.33,-145.49 694.33,-145.49 694.33,-145.49 691.86,-147.97 696.56,-147.71 689.39,-150.45 689.39,-150.45"/>
<text text-anchor="start" x="740.79" y="-126.8" font-family="Lato" font-size="14.00">!a &amp; r</text>
</g>
<!-- 8&#45;&gt;4 -->
<g id="edge32" class="edge">
<title>8&#45;&gt;4</title>
<path fill="none" stroke="black" d="M851.25,-134.13C860.11,-141.06 872.16,-149.82 883.79,-156 909.74,-169.8 921.54,-162.4 945.79,-179 953.57,-184.33 960.77,-191.72 966.62,-198.71"/>
<polygon fill="black" stroke="black" points="971.2,-204.42 964.36,-200.93 969.01,-201.69 966.82,-198.96 966.82,-198.96 966.82,-198.96 969.01,-201.69 969.28,-196.99 971.2,-204.42 971.2,-204.42"/>
<text text-anchor="start" x="894.79" y="-182.8" font-family="Lato" font-size="14.00">!a &amp; !r</text>
</g>
<!-- 7&#45;&gt;0 -->
<g id="edge23" class="edge">
<title>7&#45;&gt;0</title>
<path fill="none" stroke="black" d="M345.62,-372.53C351.93,-398.54 366.41,-448.06 391.79,-483 449.89,-562.97 472.96,-585.01 563.79,-624 676.13,-672.23 994.39,-663.27 1113.79,-637 1175.31,-623.47 1202.89,-621.83 1238.69,-570 1255.45,-545.72 1265.87,-513.43 1271.67,-490.49"/>
<polygon fill="black" stroke="black" points="1273.4,-483.4 1274.8,-490.94 1272.57,-486.8 1271.74,-490.2 1271.74,-490.2 1271.74,-490.2 1272.57,-486.8 1268.68,-489.45 1273.4,-483.4 1273.4,-483.4"/>
<text text-anchor="start" x="883.79" y="-661.8" font-family="Lato" font-size="14.00">a &amp; b &amp; !r</text>
</g>
<!-- 7&#45;&gt;9 -->
<g id="edge29" class="edge">
<title>7&#45;&gt;9</title>
<path fill="none" stroke="black" d="M358.83,-354.44C415.5,-352.62 602.85,-347 757.79,-347 757.79,-347 757.79,-347 983.29,-347 1010.88,-347 1041.84,-353.14 1063.43,-358.44"/>
<polygon fill="black" stroke="black" points="1070.37,-360.2 1062.81,-361.53 1066.98,-359.34 1063.59,-358.48 1063.59,-358.48 1063.59,-358.48 1066.98,-359.34 1064.36,-355.43 1070.37,-360.2 1070.37,-360.2"/>
<text text-anchor="start" x="729.79" y="-351.8" font-family="Lato" font-size="14.00">a &amp; b &amp; r</text>
</g>
<!-- 7&#45;&gt;1 -->
<g id="edge24" class="edge">
<title>7&#45;&gt;1</title>
<path fill="none" stroke="black" d="M352.07,-369.48C361.2,-381.28 375.58,-397.5 391.79,-407 484.52,-461.33 522.04,-439.95 625.79,-468 634.41,-470.33 643.84,-472.95 652.16,-475.29"/>
<polygon fill="black" stroke="black" points="659.15,-477.26 651.55,-478.39 655.78,-476.31 652.41,-475.36 652.41,-475.36 652.41,-475.36 655.78,-476.31 653.26,-472.33 659.15,-477.26 659.15,-477.26"/>
<text text-anchor="start" x="481.79" y="-456.8" font-family="Lato" font-size="14.00">a &amp; !b &amp; r</text>
</g>
<!-- 7&#45;&gt;2 -->
<g id="edge25" class="edge">
<title>7&#45;&gt;2</title>
<path fill="none" stroke="black" d="M358.29,-360.37C367.96,-363.32 380.46,-366.82 391.79,-369 608.69,-410.65 876.15,-426.74 957.02,-430.86"/>
<polygon fill="black" stroke="black" points="964.26,-431.22 957.11,-434.02 960.76,-431.04 957.27,-430.87 957.27,-430.87 957.27,-430.87 960.76,-431.04 957.42,-427.72 964.26,-431.22 964.26,-431.22"/>
<text text-anchor="start" x="643.79" y="-416.8" font-family="Lato" font-size="14.00">a &amp; !b &amp; !r</text>
</g>
<!-- 7&#45;&gt;3 -->
<g id="edge26" class="edge">
<title>7&#45;&gt;3</title>
<path fill="none" stroke="black" d="M356,-344.94C365.66,-338.56 378.97,-330.67 391.79,-326 423.67,-314.39 462.71,-309.08 487.43,-306.74"/>
<polygon fill="black" stroke="black" points="494.61,-306.1 487.92,-309.86 491.12,-306.41 487.64,-306.72 487.64,-306.72 487.64,-306.72 491.12,-306.41 487.36,-303.58 494.61,-306.1 494.61,-306.1"/>
<text text-anchor="start" x="391.79" y="-329.8" font-family="Lato" font-size="14.00">!a &amp; !b &amp; !r</text>
</g>
<!-- 7&#45;&gt;5 -->
<g id="edge28" class="edge">
<title>7&#45;&gt;5</title>
<path fill="none" stroke="black" d="M355.73,-344.6C362.13,-339.14 369.28,-331.93 373.79,-324 390.95,-293.82 367.93,-273.21 391.79,-248 401.06,-238.2 585.98,-188.02 652.34,-170.25"/>
<polygon fill="black" stroke="black" points="659.11,-168.44 653.16,-173.29 655.73,-169.34 652.34,-170.25 652.34,-170.25 652.34,-170.25 655.73,-169.34 651.53,-167.21 659.11,-168.44 659.11,-168.44"/>
<text text-anchor="start" x="481.79" y="-221.8" font-family="Lato" font-size="14.00">!a &amp; b &amp; r</text>
</g>
<!-- 7&#45;&gt;12 -->
<g id="edge30" class="edge">
<title>7&#45;&gt;12</title>
<path fill="none" stroke="black" d="M322.48,-355C295.16,-355 241.82,-355 209.11,-355"/>
<polygon fill="black" stroke="black" points="202.06,-355 209.06,-351.85 205.56,-355 209.06,-355 209.06,-355 209.06,-355 205.56,-355 209.06,-358.15 202.06,-355 202.06,-355"/>
<text text-anchor="start" x="221.79" y="-358.8" font-family="Lato" font-size="14.00">!a &amp; !b &amp; r</text>
</g>
<!-- 7&#45;&gt;4 -->
<g id="edge27" class="edge">
<title>7&#45;&gt;4</title>
<path fill="none" stroke="black" d="M354.3,-342.86C368.75,-328.86 390.69,-307.66 391.79,-307 427.08,-285.77 439.58,-286.9 479.79,-278 660.25,-238.08 883.59,-223.9 956.81,-220.13"/>
<polygon fill="black" stroke="black" points="964.2,-219.76 957.37,-223.26 960.71,-219.94 957.21,-220.11 957.21,-220.11 957.21,-220.11 960.71,-219.94 957.05,-216.97 964.2,-219.76 964.2,-219.76"/>
<text text-anchor="start" x="643.79" y="-253.8" font-family="Lato" font-size="14.00">!a &amp; b &amp; !r</text>
</g>
</g>
</svg>
